<svg class="mr-3" width="37" height="30" viewBox="0 0 37 30" fill="none" xmlns="http://www.w3.org/2000/svg">
<path d="M8.92795 11.8712C11.0968 11.8712 12.8608 9.21359 12.8608 5.94679C12.8608 2.68079 11.0968 0.0231934 8.92795 0.0231934C6.75915 0.0231934 4.99475 2.68079 4.99475 5.94679C4.99475 9.21359 6.75955 11.8712 8.92795 11.8712Z" fill="white"/>
<path d="M27.6424 11.8712C29.8112 11.8712 31.5756 9.21359 31.5756 5.94679C31.5756 2.68079 29.8112 0.0231934 27.6424 0.0231934C25.474 0.0231934 23.71 2.68079 23.71 5.94679C23.71 9.21359 25.4744 11.8712 27.6424 11.8712Z" fill="white"/>
<path d="M35.7177 16.612C35.4686 16.3988 35.1251 16.3745 34.8616 16.5559C30.631 19.4467 24.8915 21.4571 18.6997 22.2174C12.5094 22.9775 6.45365 22.4153 1.64906 20.6343C1.34924 20.5232 1.02102 20.6288 0.832293 20.8958C0.642516 21.1633 0.633175 21.5352 0.80882 21.8216C3.41474 26.0761 11.0298 28.3353 19.3262 27.3166C27.6259 26.2976 34.4684 22.262 35.9655 17.5041C36.066 17.1842 35.9662 16.8253 35.7177 16.612Z" fill="white"/>
</svg>
