<svg width="113" height="14" viewBox="0 0 113 14" fill="none" xmlns="http://www.w3.org/2000/svg">
<path fill-rule="evenodd" clip-rule="evenodd" d="M6.606 13.1259C9.954 13.1259 11.628 11.8839 11.628 9.39995C11.628 8.77595 11.442 8.22395 11.07 7.74395C10.698 7.26395 10.05 6.75995 9.126 6.23195C8.838 6.06395 8.484 5.86895 8.064 5.64695C7.644 5.42495 7.314 5.24795 7.074 5.11595C6.834 4.98395 6.588 4.83095 6.336 4.65695C6.084 4.48295 5.901 4.31495 5.787 4.15295C5.673 3.99095 5.616 3.81995 5.616 3.63995C5.616 3.06395 5.97 2.77595 6.678 2.77595C7.122 2.77595 7.608 2.88695 8.136 3.10895C8.664 3.33095 9.144 3.55295 9.576 3.77495C10.008 3.99695 10.332 4.10795 10.548 4.10795C10.68 4.10795 10.803 4.08095 10.917 4.02695C11.031 3.97295 11.127 3.88295 11.205 3.75695C11.283 3.63095 11.322 3.47795 11.322 3.29795C11.322 2.63795 10.818 2.01395 9.81 1.42595C8.802 0.837945 7.584 0.543945 6.156 0.543945C4.5 0.543945 3.222 0.861945 2.322 1.49795C1.422 2.13395 0.972002 2.95595 0.972002 3.96395C0.972002 4.27595 1.044 4.61494 1.188 4.98095C1.332 5.34695 1.563 5.71595 1.881 6.08795C2.199 6.45995 2.58 6.77195 3.024 7.02395C3.36 7.21595 3.708 7.40795 4.068 7.59995C4.428 7.79195 4.719 7.94795 4.941 8.06795L5.607 8.42795C5.829 8.54795 6.003 8.64694 6.129 8.72495C6.255 8.80295 6.369 8.88694 6.471 8.97694C6.573 9.06695 6.645 9.15695 6.687 9.24695C6.729 9.33695 6.75 9.43595 6.75 9.54395C6.75 9.91595 6.48 10.1019 5.94 10.1019C5.352 10.1019 4.578 9.94295 3.618 9.62495C2.658 9.30695 2.052 9.14795 1.8 9.14795C1.464 9.14795 1.209 9.24095 1.035 9.42695C0.861002 9.61295 0.774002 9.83794 0.774002 10.1019C0.774002 10.3419 0.864002 10.5999 1.044 10.8759C1.224 11.1519 1.491 11.4219 1.845 11.6859C2.199 11.9499 2.607 12.1899 3.069 12.4059C3.531 12.6219 4.071 12.7959 4.689 12.9279C5.307 13.0599 5.946 13.1259 6.606 13.1259ZM25.884 12.9999C26.184 12.9999 26.433 12.9789 26.631 12.9369C26.829 12.8949 27.009 12.8109 27.171 12.6849C27.333 12.5589 27.459 12.3999 27.549 12.2079C27.639 12.0159 27.714 11.7519 27.774 11.4159C27.834 11.0799 27.873 10.7019 27.891 10.2819C27.909 9.86195 27.918 9.33395 27.918 8.69794C27.918 7.17394 27.732 6.08794 27.36 5.43995C26.988 4.79195 26.376 4.46795 25.524 4.46795C24.18 4.46795 23.046 4.80395 22.122 5.47595L21.942 5.61995C21.546 4.85194 20.904 4.46795 20.016 4.46795C19.428 4.46795 18.915 4.53395 18.477 4.66595C18.039 4.79795 17.592 5.03195 17.136 5.36795C16.872 4.73195 16.248 4.41395 15.264 4.41395C14.712 4.41395 14.271 4.59995 13.941 4.97195C13.611 5.34395 13.446 5.83595 13.446 6.44795V10.8759C13.446 11.6319 13.575 12.1749 13.833 12.5049C14.091 12.8349 14.574 12.9999 15.282 12.9999C16.038 12.9999 16.566 12.8589 16.866 12.5769C17.166 12.2949 17.316 11.7939 17.316 11.0739V8.57195C17.316 8.17595 17.385 7.85495 17.523 7.60894C17.661 7.36295 17.838 7.23995 18.054 7.23995C18.594 7.23995 18.864 7.57595 18.864 8.24795V11.5059C18.864 11.8299 18.918 12.0999 19.026 12.3159C19.134 12.5319 19.317 12.6999 19.575 12.8199C19.833 12.9399 20.172 12.9999 20.592 12.9999C20.868 12.9999 21.096 12.9789 21.276 12.9369C21.456 12.8949 21.618 12.8109 21.762 12.6849C21.906 12.5589 22.02 12.3999 22.104 12.2079C22.188 12.0159 22.26 11.7519 22.32 11.4159C22.38 11.0799 22.419 10.7019 22.437 10.2819C22.455 9.86195 22.464 9.33395 22.464 8.69794C22.464 8.27795 22.524 7.92994 22.644 7.65394C22.764 7.37795 22.944 7.23995 23.184 7.23995C23.724 7.23995 23.994 7.57595 23.994 8.24795V11.5059C23.994 11.8299 24.054 12.0999 24.174 12.3159C24.294 12.5319 24.495 12.6999 24.777 12.8199C25.059 12.9399 25.428 12.9999 25.884 12.9999ZM32.985 2.97395C32.655 3.17795 32.166 3.27995 31.518 3.27995C30.954 3.27995 30.486 3.17195 30.114 2.95595C29.742 2.73995 29.556 2.39195 29.556 1.91195C29.556 1.51595 29.727 1.18895 30.069 0.930945C30.411 0.672945 30.894 0.543945 31.518 0.543945C32.826 0.543945 33.48 0.999945 33.48 1.91195C33.48 2.41595 33.315 2.76995 32.985 2.97395ZM31.428 12.9999C32.184 12.9999 32.712 12.8589 33.012 12.5769C33.312 12.2949 33.462 11.7939 33.462 11.0739V6.39395C33.462 5.63795 33.282 5.11895 32.922 4.83695C32.562 4.55494 32.058 4.41395 31.41 4.41395C30.858 4.41395 30.417 4.59995 30.087 4.97195C29.757 5.34395 29.592 5.83595 29.592 6.44795V10.8759C29.592 11.6319 29.721 12.1749 29.979 12.5049C30.237 12.8349 30.72 12.9999 31.428 12.9999ZM38.574 12.3699C38.25 12.7899 37.752 12.9999 37.08 12.9999C36.408 12.9999 35.916 12.8109 35.604 12.4329C35.292 12.0549 35.136 11.3859 35.136 10.4259L35.1 2.82995C35.1 2.51795 35.133 2.24195 35.199 2.00195C35.265 1.76195 35.355 1.55795 35.469 1.38995C35.583 1.22195 35.724 1.08395 35.892 0.975945C36.06 0.867945 36.243 0.789945 36.441 0.741945C36.639 0.693945 36.852 0.669945 37.08 0.669945C37.74 0.669945 38.235 0.801945 38.565 1.06595C38.895 1.32995 39.06 1.86395 39.06 2.66795V10.2819C39.06 11.2539 38.898 11.9499 38.574 12.3699ZM45.666 13.1079C46.314 13.1079 46.92 12.9999 47.484 12.7839C48.048 12.5679 48.501 12.3069 48.843 12.0009C49.185 11.6949 49.452 11.3889 49.644 11.0829C49.836 10.7769 49.932 10.5159 49.932 10.2999C49.932 10.1199 49.875 9.96994 49.761 9.84995C49.647 9.72995 49.488 9.66994 49.284 9.66994C49.164 9.66994 48.969 9.73594 48.699 9.86794C48.429 9.99995 48.18 10.0959 47.952 10.1559C47.412 10.2879 46.884 10.3539 46.368 10.3539C45.888 10.3539 45.492 10.2429 45.18 10.0209C44.868 9.79895 44.652 9.49594 44.532 9.11195L47.07 9.09395C47.37 9.09395 47.652 9.06695 47.916 9.01295C48.18 8.95895 48.408 8.88095 48.6 8.77895C48.792 8.67695 48.963 8.56295 49.113 8.43695C49.263 8.31095 49.383 8.17295 49.473 8.02295C49.563 7.87295 49.629 7.71995 49.671 7.56395C49.713 7.40795 49.734 7.24595 49.734 7.07795C49.734 6.21395 49.407 5.53295 48.753 5.03495C48.099 4.53695 47.07 4.28795 45.666 4.28795C44.178 4.28795 42.963 4.69895 42.021 5.52095C41.079 6.34295 40.608 7.46195 40.608 8.87794C40.608 10.1859 41.085 11.2179 42.039 11.9739C42.993 12.7299 44.202 13.1079 45.666 13.1079ZM44.676 6.87094C44.556 7.20094 44.478 7.56395 44.442 7.95995C45.27 7.94795 45.72 7.94195 45.792 7.94195C45.972 7.94195 46.104 7.83395 46.188 7.61795C46.248 7.46195 46.278 7.24594 46.278 6.96994C46.278 6.21394 46.05 5.83595 45.594 5.83595C45.426 5.83595 45.261 5.92595 45.099 6.10595C44.937 6.28594 44.796 6.54095 44.676 6.87094ZM57.204 13.1259C60.552 13.1259 62.226 11.8839 62.226 9.39995C62.226 8.77595 62.04 8.22395 61.668 7.74395C61.296 7.26395 60.648 6.75995 59.724 6.23195C59.436 6.06395 59.082 5.86895 58.662 5.64695C58.242 5.42495 57.912 5.24795 57.672 5.11595C57.432 4.98395 57.186 4.83095 56.934 4.65695C56.682 4.48295 56.499 4.31495 56.385 4.15295C56.271 3.99095 56.214 3.81995 56.214 3.63995C56.214 3.06395 56.568 2.77595 57.276 2.77595C57.72 2.77595 58.206 2.88695 58.734 3.10895C59.262 3.33095 59.742 3.55295 60.174 3.77495C60.606 3.99695 60.93 4.10795 61.146 4.10795C61.278 4.10795 61.401 4.08095 61.515 4.02695C61.629 3.97295 61.725 3.88295 61.803 3.75695C61.881 3.63095 61.92 3.47795 61.92 3.29795C61.92 2.63795 61.416 2.01395 60.408 1.42595C59.4 0.837945 58.182 0.543945 56.754 0.543945C55.098 0.543945 53.82 0.861945 52.92 1.49795C52.02 2.13395 51.57 2.95595 51.57 3.96395C51.57 4.27595 51.642 4.61494 51.786 4.98095C51.93 5.34695 52.161 5.71595 52.479 6.08795C52.797 6.45995 53.178 6.77195 53.622 7.02395C53.958 7.21595 54.306 7.40795 54.666 7.59995C55.026 7.79195 55.317 7.94795 55.539 8.06795L56.205 8.42795C56.427 8.54795 56.601 8.64694 56.727 8.72495C56.853 8.80295 56.967 8.88694 57.069 8.97694C57.171 9.06695 57.243 9.15695 57.285 9.24695C57.327 9.33695 57.348 9.43595 57.348 9.54395C57.348 9.91595 57.078 10.1019 56.538 10.1019C55.95 10.1019 55.176 9.94295 54.216 9.62495C53.256 9.30695 52.65 9.14795 52.398 9.14795C52.062 9.14795 51.807 9.24095 51.633 9.42695C51.459 9.61295 51.372 9.83794 51.372 10.1019C51.372 10.3419 51.462 10.5999 51.642 10.8759C51.822 11.1519 52.089 11.4219 52.443 11.6859C52.797 11.9499 53.205 12.1899 53.667 12.4059C54.129 12.6219 54.669 12.7959 55.287 12.9279C55.905 13.0599 56.544 13.1259 57.204 13.1259ZM70.416 12.9099C69.948 13.0539 69.456 13.1259 68.94 13.1259C67.452 13.1259 66.228 12.7269 65.268 11.9289C64.308 11.1309 63.828 10.0359 63.828 8.64395C63.828 7.75595 64.047 6.97895 64.485 6.31295C64.923 5.64695 65.526 5.14295 66.294 4.80095C67.062 4.45895 67.944 4.28795 68.94 4.28795C69.888 4.28795 70.671 4.39895 71.289 4.62095C71.907 4.84295 72.348 5.13995 72.612 5.51195C72.876 5.88395 73.008 6.32795 73.008 6.84395C73.008 7.07195 72.963 7.30595 72.873 7.54595C72.783 7.78594 72.645 8.02595 72.459 8.26595C72.273 8.50595 72 8.70095 71.64 8.85095C71.28 9.00095 70.86 9.07594 70.38 9.07594C70.164 9.07594 69.987 9.06394 69.849 9.03995C69.711 9.01595 69.567 8.96494 69.417 8.88695C69.267 8.80895 69.156 8.67994 69.084 8.49995C69.012 8.31995 68.976 8.09195 68.976 7.81595C68.976 7.57595 69.021 7.28495 69.111 6.94295C69.201 6.60095 69.246 6.37595 69.246 6.26795C69.246 5.99195 69.09 5.85395 68.778 5.85395C68.55 5.85395 68.346 5.97995 68.166 6.23195C67.986 6.48395 67.848 6.79895 67.752 7.17695C67.656 7.55494 67.608 7.94795 67.608 8.35595C67.608 8.95595 67.791 9.44195 68.157 9.81395C68.523 10.1859 69.018 10.3719 69.642 10.3719C70.254 10.3719 70.782 10.2999 71.226 10.1559C71.406 10.1079 71.625 10.0179 71.883 9.88595C72.141 9.75395 72.324 9.68795 72.432 9.68795C72.6 9.68795 72.738 9.71795 72.846 9.77794C72.954 9.83794 73.029 9.90995 73.071 9.99395C73.113 10.0779 73.134 10.1679 73.134 10.2639C73.134 10.4319 73.077 10.6359 72.963 10.8759C72.849 11.1159 72.672 11.3679 72.432 11.6319C72.192 11.8959 71.913 12.1389 71.595 12.3609C71.277 12.5829 70.884 12.7659 70.416 12.9099ZM82.242 12.9999C82.494 12.9999 82.71 12.9819 82.89 12.9459C83.07 12.9099 83.235 12.8529 83.385 12.7749C83.535 12.6969 83.658 12.5859 83.754 12.4419C83.85 12.2979 83.934 12.1239 84.006 11.9199C84.078 11.7159 84.132 11.4549 84.168 11.1369C84.204 10.8189 84.231 10.4679 84.249 10.0839C84.267 9.69995 84.276 9.24395 84.276 8.71595C84.276 7.68395 84.192 6.84995 84.024 6.21394C83.856 5.57795 83.598 5.11295 83.25 4.81894C82.902 4.52495 82.44 4.37795 81.864 4.37795C80.592 4.37795 79.512 4.64794 78.624 5.18794V2.57795C78.624 1.77395 78.462 1.23995 78.138 0.975945C77.814 0.711945 77.334 0.579945 76.698 0.579945C76.098 0.579945 75.618 0.753945 75.258 1.10195C74.898 1.44995 74.718 1.99595 74.718 2.73995L74.754 10.4079C74.754 11.3679 74.91 12.0369 75.222 12.4149C75.534 12.7929 76.026 12.9819 76.698 12.9819C77.346 12.9819 77.829 12.7749 78.147 12.3609C78.465 11.9469 78.624 11.2479 78.624 10.2639V8.28395C78.624 8.15195 78.633 8.03195 78.651 7.92394C78.669 7.81595 78.699 7.72295 78.741 7.64495C78.783 7.56695 78.831 7.49495 78.885 7.42895C78.939 7.36295 78.999 7.31195 79.065 7.27595C79.131 7.23995 79.203 7.20995 79.281 7.18595C79.359 7.16195 79.446 7.14995 79.542 7.14995C80.07 7.14995 80.334 7.49195 80.334 8.17595L80.352 11.5059C80.352 12.0099 80.499 12.3849 80.793 12.6309C81.087 12.8769 81.57 12.9999 82.242 12.9999ZM94.365 11.9559C93.423 12.7359 92.238 13.1259 90.81 13.1259C89.874 13.1259 89.031 12.9579 88.281 12.6219C87.531 12.2859 86.931 11.7819 86.481 11.1099C86.031 10.4379 85.806 9.65195 85.806 8.75195C85.806 7.38395 86.274 6.29795 87.21 5.49395C88.146 4.68995 89.346 4.28795 90.81 4.28795C92.274 4.28795 93.468 4.68995 94.392 5.49395C95.316 6.29795 95.778 7.38395 95.778 8.75195C95.778 10.1079 95.307 11.1759 94.365 11.9559ZM90.81 11.0379C90.498 11.0379 90.258 10.8069 90.09 10.3449C89.922 9.88295 89.838 9.34595 89.838 8.73394C89.838 8.33794 89.874 7.96595 89.946 7.61795C90.018 7.26995 90.132 6.97594 90.288 6.73595C90.444 6.49594 90.624 6.37595 90.828 6.37595C91.128 6.37595 91.356 6.61295 91.512 7.08695C91.668 7.56095 91.746 8.10995 91.746 8.73394C91.746 9.35795 91.668 9.89795 91.512 10.3539C91.356 10.8099 91.122 11.0379 90.81 11.0379ZM105.723 11.9559C104.781 12.7359 103.596 13.1259 102.168 13.1259C101.232 13.1259 100.389 12.9579 99.639 12.6219C98.889 12.2859 98.289 11.7819 97.839 11.1099C97.389 10.4379 97.164 9.65195 97.164 8.75195C97.164 7.38395 97.632 6.29795 98.568 5.49395C99.504 4.68995 100.704 4.28795 102.168 4.28795C103.632 4.28795 104.826 4.68995 105.75 5.49395C106.674 6.29795 107.136 7.38395 107.136 8.75195C107.136 10.1079 106.665 11.1759 105.723 11.9559ZM102.168 11.0379C101.856 11.0379 101.616 10.8069 101.448 10.3449C101.28 9.88295 101.196 9.34595 101.196 8.73394C101.196 8.33794 101.232 7.96595 101.304 7.61795C101.376 7.26995 101.49 6.97594 101.646 6.73595C101.802 6.49594 101.982 6.37595 102.186 6.37595C102.486 6.37595 102.714 6.61295 102.87 7.08695C103.026 7.56095 103.104 8.10995 103.104 8.73394C103.104 9.35795 103.026 9.89795 102.87 10.3539C102.714 10.8099 102.48 11.0379 102.168 11.0379ZM112.122 12.3699C111.798 12.7899 111.3 12.9999 110.628 12.9999C109.956 12.9999 109.464 12.8109 109.152 12.4329C108.84 12.0549 108.684 11.3859 108.684 10.4259L108.648 2.82995C108.648 2.51795 108.681 2.24195 108.747 2.00195C108.813 1.76195 108.903 1.55795 109.017 1.38995C109.131 1.22195 109.272 1.08395 109.44 0.975945C109.608 0.867945 109.791 0.789945 109.989 0.741945C110.187 0.693945 110.4 0.669945 110.628 0.669945C111.288 0.669945 111.783 0.801945 112.113 1.06595C112.443 1.32995 112.608 1.86395 112.608 2.66795V10.2819C112.608 11.2539 112.446 11.9499 112.122 12.3699Z" fill="white"/>
</svg>
